# xmcd CD database file
#
# Track frame offsets:
#	150
#	23832
#	47725
#	65857
#	88835
#	111025
#	133975
#	160445
#	182350
#
# Disc length: 2749 seconds
#
# Revision: 0
# Processed by: cddbd v1.5.1PL0 Copyright (c) Steve Scherf et al.
# Submitted via: CDex 1.51
#
DISCID=7d0abb09
DTITLE=Trammell Starks - Nothern Lights
DYEAR=1990
DGENRE=New Age
TTITLE0=Elba
TTITLE1=Old Town
TTITLE2=For Ian
TTITLE3=Zuri
TTITLE4=Neon Skyline
TTITLE5=Absolute Time
TTITLE6=Calm Before the Storm
TTITLE7=Northern Lights
TTITLE8=Happy Ending
EXTD=YEAR: 1990
EXTT0=
EXTT1=
EXTT2=
EXTT3=
EXTT4=
EXTT5=
EXTT6=
EXTT7=
EXTT8=
PLAYORDER=
